<?xml version="1.0" encoding="utf-8"?>
<svg viewBox="0 0 500 500" width="500px" height="500px" xmlns="http://www.w3.org/2000/svg">
  <path d="M 337.384 232.169 L 383.117 232.169 C 386.56 232.169 388.699 235.879 386.986 238.857 C 386.863 239.07 386.72 239.283 386.54 239.481 L 351.486 281.56 C 349.703 283.7 346.421 283.7 344.64 281.56 C 344.64 281.56 342.1 245.655 337.384 232.169 Z M 116.869 267.831 L 162.528 267.831 C 159.6 256.719 155.349 218.44 155.349 218.44 C 153.565 216.3 150.284 216.3 148.501 218.44 L 113.446 260.52 C 111.252 263.16 112.733 267.189 116.12 267.76 C 116.37 267.813 116.621 267.831 116.869 267.831 Z" style=""/>
  <path fill-rule="evenodd" d="M 249.994 160.847 C 222.321 160.847 197.571 173.453 181.22 193.264 C 177.031 198.702 168.526 197.56 165.921 191.213 C 164.638 188.074 165.243 184.473 167.473 181.922 C 219.949 118.409 321.493 135.49 350.273 212.698 C 352.627 219.01 354.375 225.519 355.499 232.169 L 337.363 232.169 C 328.875 190.659 292.377 160.847 249.994 160.847 Z M 162.622 267.831 C 176.406 335.089 257.821 362.227 309.191 316.669 C 312.632 313.603 315.843 310.286 318.767 306.738 C 322.974 301.3 331.462 302.44 334.083 308.789 C 335.367 311.926 334.761 315.528 332.515 318.077 C 280.056 381.591 178.51 364.509 149.731 287.302 C 147.378 280.99 145.629 274.483 144.489 267.831 L 162.622 267.831 Z" style=""/>
  <path d="M 294.387 235.567 L 276.855 235.567 C 275.537 243.326 272.141 248.017 266.112 248.017 C 255.178 248.017 248.963 235.204 231.999 235.204 C 215.599 235.204 206.928 245.309 205.611 264.618 L 223.137 264.618 C 224.461 256.672 227.849 251.982 234.07 251.982 C 245.006 251.982 250.842 264.796 268.183 264.796 C 284.208 264.796 293.071 254.69 294.387 235.567 Z" fill="black" style=""/>
</svg>
