<?xml version="1.0" encoding="utf-8"?>
<svg viewBox="0 0 500 500" xmlns="http://www.w3.org/2000/svg">
  <path d="M 396.397 220.128 L 473.015 220.128 C 478.781 220.128 482.365 226.342 479.496 231.331 C 479.288 231.688 479.05 232.046 478.749 232.377 L 420.021 302.873 C 417.035 306.458 411.537 306.458 408.551 302.873 C 408.551 302.873 404.297 242.721 396.397 220.128 Z M 26.964 279.873 L 103.457 279.873 C 98.552 261.256 91.429 197.126 91.429 197.126 C 88.442 193.542 82.945 193.542 79.957 197.126 L 21.229 267.625 C 17.554 272.047 20.035 278.796 25.71 279.754 C 26.128 279.842 26.548 279.873 26.964 279.873 Z" style=""/>
  <path fill-rule="evenodd" d="M 249.989 100.64 C 203.628 100.64 162.165 121.759 134.773 154.948 C 127.754 164.059 113.505 162.146 109.142 151.512 C 106.992 146.254 108.007 140.221 111.742 135.948 C 199.655 29.544 369.776 58.161 417.991 187.507 C 421.934 198.082 424.862 208.986 426.744 220.128 L 396.363 220.128 C 382.143 150.586 320.995 100.64 249.989 100.64 Z M 103.616 279.873 C 126.707 392.55 263.103 438.016 349.166 361.691 C 354.93 356.554 360.308 350.997 365.206 345.053 C 372.256 335.943 386.475 337.854 390.866 348.489 C 393.017 353.745 392.002 359.78 388.238 364.051 C 300.354 470.456 130.232 441.838 82.019 312.492 C 78.076 301.918 75.147 291.015 73.236 279.873 L 103.616 279.873 Z" style=""/>
  <path d="M 324.363 225.819 L 294.99 225.819 C 292.783 238.819 287.094 246.677 276.993 246.677 C 258.675 246.677 248.264 225.212 219.844 225.212 C 192.368 225.212 177.841 242.141 175.636 274.49 L 204.997 274.49 C 207.215 261.178 212.891 253.32 223.314 253.32 C 241.634 253.32 251.412 274.787 280.463 274.787 C 307.309 274.787 322.158 257.857 324.363 225.819 Z" fill="black" style=""/>
</svg>
