<?xml version="1.0" standalone="no"?>
<!DOCTYPE svg PUBLIC "-//W3C//DTD SVG 20010904//EN"
 "http://www.w3.org/TR/2001/REC-SVG-20010904/DTD/svg10.dtd">
<svg version="1.0" xmlns="http://www.w3.org/2000/svg"
 width="700.000000pt" height="700.000000pt" viewBox="0 0 700.000000 700.000000"
 preserveAspectRatio="xMidYMid meet">
<metadata>
Created by potrace 1.14, written by Peter Selinger 2001-2017
</metadata>
<g transform="translate(0.000000,700.000000) scale(0.100000,-0.100000)"
fill="#000000" stroke="none">
<path d="M3340 6006 c-3 -2 -41 -7 -85 -10 -447 -32 -933 -226 -1305 -520
-153 -121 -376 -350 -414 -424 -68 -133 32 -301 181 -302 78 0 112 23 247 165
353 373 743 577 1261 660 86 14 430 13 535 -1 251 -33 537 -123 720 -228 25
-14 54 -30 65 -35 42 -18 223 -146 300 -211 78 -66 193 -180 252 -250 42 -50
153 -198 153 -204 0 -3 13 -24 29 -48 65 -96 158 -298 211 -458 20 -60 106
-387 115 -435 33 -186 40 -237 64 -436 26 -222 29 -251 37 -349 4 -47 8 -92
10 -100 1 -8 3 -27 3 -41 2 -45 87 -71 133 -41 14 10 175 197 358 417 395 475
404 486 453 543 67 78 77 116 48 171 -25 47 -46 49 -386 50 -176 0 -327 0
-336 0 -11 1 -19 20 -28 69 -26 131 -93 359 -137 461 -111 257 -256 496 -424
696 -31 37 -216 221 -255 255 -313 264 -656 440 -1046 535 -92 23 -238 50
-324 60 -64 7 -429 17 -435 11z"/>
<path d="M1150 4264 c-14 -9 -89 -93 -167 -187 -78 -95 -150 -181 -160 -192
-10 -11 -35 -41 -56 -67 -21 -26 -43 -53 -50 -60 -7 -8 -32 -38 -57 -68 -25
-30 -52 -64 -62 -75 -256 -306 -317 -384 -322 -408 -3 -15 1 -43 8 -62 26 -62
35 -63 404 -63 183 1 335 -1 337 -4 3 -2 7 -20 9 -39 3 -19 7 -43 10 -54 128
-578 439 -1087 878 -1438 83 -66 270 -197 282 -197 2 0 33 -17 67 -38 227
-136 629 -270 893 -298 33 -3 69 -8 80 -11 12 -2 109 -6 216 -8 575 -9 1083
152 1533 488 184 137 424 375 472 467 53 102 6 232 -102 281 -90 41 -195 10
-263 -77 -48 -61 -219 -227 -307 -297 -286 -227 -623 -372 -1008 -432 -69 -11
-437 -14 -505 -5 -36 5 -81 12 -100 14 -151 21 -427 103 -530 157 -19 11 -37
19 -41 19 -3 0 -53 25 -110 56 -516 280 -880 748 -1025 1318 -40 158 -48 191
-58 261 -3 22 -10 63 -16 90 -8 44 -31 195 -44 295 -6 43 -35 272 -41 320 -2
19 -9 73 -15 120 -12 92 -17 136 -19 160 -3 37 -90 60 -131 34z"/>
<path d="M2940 3834 c-185 -35 -309 -130 -391 -299 -56 -117 -109 -374 -77
-376 65 -4 382 -3 389 2 5 3 16 32 24 64 50 190 176 266 347 208 38 -13 125
-58 191 -100 220 -138 325 -176 487 -177 160 0 256 24 355 89 152 101 240 277
270 537 l7 57 -206 0 -206 0 -6 -27 c-23 -104 -71 -195 -122 -228 -41 -27
-119 -41 -175 -33 -62 10 -149 51 -258 122 -140 90 -259 144 -359 163 -64 12
-204 11 -270 -2z"/>
</g>
</svg>
