<?xml version="1.0" standalone="no"?>
<!DOCTYPE svg PUBLIC "-//W3C//DTD SVG 20010904//EN"
 "http://www.w3.org/TR/2001/REC-SVG-20010904/DTD/svg10.dtd">
<svg version="1.0" xmlns="http://www.w3.org/2000/svg"
 width="700.000000pt" height="700.000000pt" viewBox="0 0 700.000000 700.000000"
 preserveAspectRatio="xMidYMid meet">
<metadata>
Created by potrace 1.14, written by Peter Selinger 2001-2017
</metadata>
<g transform="translate(0.000000,700.000000) scale(0.100000,-0.100000)"
fill="#000000" stroke="none">
<path d="M4868 5395 c-2 -2 -28 -5 -58 -8 -258 -27 -495 -144 -694 -343 -161
-161 -280 -409 -313 -649 -12 -93 -4 -348 12 -375 2 -4 6 -20 9 -36 17 -97 92
-270 161 -375 57 -85 178 -215 256 -274 131 -100 367 -211 386 -182 28 42 261
452 259 454 -1 2 -21 5 -44 8 -174 22 -371 164 -459 331 -52 99 -75 187 -75
289 -1 255 133 472 357 580 109 52 171 67 278 67 193 1 380 -88 496 -235 l30
-38 25 43 c13 24 74 129 135 233 l111 190 -43 39 c-107 98 -318 212 -448 242
-64 15 -118 25 -159 30 -47 6 -218 13 -222 9z"/>
<path d="M1251 5093 c17 -32 40 -71 49 -88 26 -45 350 -605 371 -640 10 -16
26 -46 37 -65 11 -19 77 -134 147 -255 70 -121 172 -299 227 -395 56 -96 109
-187 119 -202 11 -15 19 -30 19 -32 0 -3 18 -35 40 -71 22 -36 40 -68 40 -70
0 -3 11 -24 26 -46 14 -22 34 -57 46 -77 11 -20 139 -242 283 -493 145 -250
272 -471 283 -490 17 -30 245 -424 300 -519 11 -19 33 -57 47 -85 15 -27 33
-57 39 -65 6 -8 22 -35 36 -60 13 -25 48 -85 77 -134 29 -49 53 -92 53 -97 0
-28 30 18 168 259 149 260 311 541 365 633 l27 45 -108 190 c-60 104 -144 250
-187 324 -125 216 -215 372 -240 415 -12 22 -103 180 -202 350 -269 466 -514
888 -523 905 -4 8 -27 46 -49 83 -23 38 -41 70 -41 72 0 4 -189 333 -210 365
-5 8 -17 31 -27 50 -9 19 -46 65 -82 101 -73 73 -162 123 -250 139 -31 6 -238
10 -483 10 l-430 0 33 -57z"/>
</g>
</svg>
